<svg xmlns="http://www.w3.org/2000/svg" viewBox="0 0 960 620" width="960" height="620">
  <defs>
    <marker id="arr" markerWidth="8" markerHeight="6" refX="8" refY="3" orient="auto">
      <path d="M0,0 L8,3 L0,6" fill="#999"/>
    </marker>
    <style>
      text { font-family: -apple-system, BlinkMacSystemFont, Segoe UI, Roboto, sans-serif; }
    </style>
  </defs>

  <rect width="960" height="620" rx="16" fill="#fafbfc" stroke="#e1e4e8" stroke-width="1"/>

  <rect x="30" y="10" width="900" height="56" rx="10" fill="#f3e8f5" stroke="#9c27b0" stroke-width="1.5"/>
  <text x="480" y="33" text-anchor="middle" fill="#7b1fa2" font-size="11" font-weight="600" letter-spacing="1">WORKLOADS</text>
  <text x="240" y="52" text-anchor="middle" fill="#333" font-size="14" font-weight="600">SFT</text>
  <text x="480" y="52" text-anchor="middle" fill="#333" font-size="14" font-weight="600">Pretrain</text>
  <text x="720" y="52" text-anchor="middle" fill="#333" font-size="14" font-weight="600">RL (GRPO / PPO / DAPO)</text>

  <path d="M480 66 L480 82" stroke="#999" stroke-width="1.5" marker-end="url(#arr)"/>

  <rect x="30" y="82" width="440" height="56" rx="10" fill="#e3f2fd" stroke="#1976d2" stroke-width="1.5"/>
  <text x="250" y="104" text-anchor="middle" fill="#1565c0" font-size="11" font-weight="600">MEGATRON-LM</text>
  <text x="250" y="124" text-anchor="middle" fill="#555" font-size="12">TP / PP / EP / DP</text>

  <rect x="490" y="82" width="440" height="56" rx="10" fill="#e3f2fd" stroke="#1976d2" stroke-width="1.5"/>
  <text x="710" y="104" text-anchor="middle" fill="#1565c0" font-size="11" font-weight="600">FSDP / FSDP2</text>
  <text x="710" y="124" text-anchor="middle" fill="#555" font-size="12">Full Shard + HF Accelerate</text>

  <path d="M480 138 L480 156" stroke="#999" stroke-width="1.5" marker-end="url(#arr)"/>

  <rect x="30" y="156" width="900" height="56" rx="10" fill="#fde8e8" stroke="#d32f2f" stroke-width="2"/>
  <text x="480" y="178" text-anchor="middle" fill="#c62828" font-size="11" font-weight="700" letter-spacing="1">NON-INVASIVE QUANTIZATION</text>
  <text x="480" y="198" text-anchor="middle" fill="#333" font-size="14" font-weight="600">quant.enable(model) &#x2014; QuantConfig &#x2014; FP8 E4M3 / E5M2 / MXFP8 / Hybrid</text>

  <path d="M480 212 L480 230" stroke="#999" stroke-width="1.5" marker-end="url(#arr)"/>

  <rect x="30" y="230" width="440" height="80" rx="10" fill="#fff8f0" stroke="#bbb" stroke-width="1"/>
  <text x="250" y="252" text-anchor="middle" fill="#c62828" font-size="11" font-weight="600" letter-spacing="0.5">SCALING MANAGER</text>
  <text x="250" y="272" text-anchor="middle" fill="#555" font-size="12">Per-tensor / Block / MXFP8 scaling</text>
  <text x="250" y="289" text-anchor="middle" fill="#555" font-size="12">Amax history &#x00B7; Delayed scaling &#x00B7; AMD FNUZ</text>

  <rect x="490" y="230" width="440" height="80" rx="10" fill="#f0f4ff" stroke="#bbb" stroke-width="1"/>
  <text x="710" y="252" text-anchor="middle" fill="#1565c0" font-size="11" font-weight="600" letter-spacing="0.5">DISTRIBUTED MANAGEMENT</text>
  <text x="710" y="272" text-anchor="middle" fill="#555" font-size="12">FP8 param &amp; grad buffers &#x00B7; FP8 all-gather</text>
  <text x="710" y="289" text-anchor="middle" fill="#555" font-size="12">AG&#x2194;fwd overlap &#x00B7; RS&#x2194;bwd overlap</text>

  <path d="M480 310 L480 330" stroke="#999" stroke-width="1.5" marker-end="url(#arr)"/>

  <rect x="30" y="330" width="175" height="72" rx="8" fill="#fff5f5" stroke="#ddd" stroke-width="1"/>
  <text x="118" y="354" text-anchor="middle" fill="#c62828" font-size="11" font-weight="600">ATTENTION</text>
  <text x="118" y="370" text-anchor="middle" fill="#666" font-size="10">MHA / MLA / GQA</text>
  <text x="118" y="384" text-anchor="middle" fill="#666" font-size="10">FP8 &#x00B7; MXFP8 &#x00B7; CP</text>

  <rect x="215" y="330" width="175" height="72" rx="8" fill="#f0f4ff" stroke="#ddd" stroke-width="1"/>
  <text x="303" y="354" text-anchor="middle" fill="#1565c0" font-size="11" font-weight="600">QUANTIZED LINEAR</text>
  <text x="303" y="370" text-anchor="middle" fill="#666" font-size="10">Fused quant&#x2192;GEMM&#x2192;dequant</text>
  <text x="303" y="384" text-anchor="middle" fill="#666" font-size="10">7 scaling modes</text>

  <rect x="400" y="330" width="175" height="72" rx="8" fill="#f0fff0" stroke="#ddd" stroke-width="1"/>
  <text x="488" y="354" text-anchor="middle" fill="#2e7d32" font-size="11" font-weight="600">FUSED MLP</text>
  <text x="488" y="370" text-anchor="middle" fill="#666" font-size="10">Gated &amp; ungated fusion</text>
  <text x="488" y="384" text-anchor="middle" fill="#666" font-size="10">FP8 activation store</text>

  <rect x="585" y="330" width="175" height="72" rx="8" fill="#fffde7" stroke="#ddd" stroke-width="1"/>
  <text x="673" y="354" text-anchor="middle" fill="#e65100" font-size="11" font-weight="600">MOE ROUTING</text>
  <text x="673" y="370" text-anchor="middle" fill="#666" font-size="10">Fused top-k &#x00B7; Permute</text>
  <text x="673" y="384" text-anchor="middle" fill="#666" font-size="10">Grouped GEMM &#x00B7; All FP8</text>

  <rect x="770" y="330" width="160" height="72" rx="8" fill="#f3e8f5" stroke="#ddd" stroke-width="1"/>
  <text x="850" y="354" text-anchor="middle" fill="#6a1b9a" font-size="11" font-weight="600">NORM &#x00B7; ROPE &#x00B7; CE</text>
  <text x="850" y="370" text-anchor="middle" fill="#666" font-size="10">RMSNorm &#x00B7; LayerNorm</text>
  <text x="850" y="384" text-anchor="middle" fill="#666" font-size="10">Cross-Entropy &#x00B7; Quant</text>

  <path d="M480 402 L480 424" stroke="#999" stroke-width="1.5" marker-end="url(#arr)"/>

  <rect x="30" y="424" width="440" height="80" rx="10" fill="#e8f5e9" stroke="#388e3c" stroke-width="1.5"/>
  <text x="250" y="446" text-anchor="middle" fill="#2e7d32" font-size="11" font-weight="700" letter-spacing="0.5">AITER &#x2014; KERNEL PROVIDER</text>
  <text x="250" y="466" text-anchor="middle" fill="#555" font-size="12">ASM &#x2192; CK &#x2192; Triton fallback chain</text>
  <text x="250" y="483" text-anchor="middle" fill="#555" font-size="12">hipBLASLt &#x00B7; DeepGEMM &#x00B7; Tuned GEMM</text>

  <rect x="490" y="424" width="440" height="80" rx="10" fill="#e0f2f1" stroke="#00796b" stroke-width="1.5"/>
  <text x="710" y="446" text-anchor="middle" fill="#00695c" font-size="11" font-weight="700" letter-spacing="0.5">MORI &#x2014; COMMUNICATION PROVIDER</text>
  <text x="710" y="466" text-anchor="middle" fill="#555" font-size="12">MORI-CCL (AG, RS, AR) &#x00B7; MORI-EP (MoE)</text>
  <text x="710" y="483" text-anchor="middle" fill="#555" font-size="12">Device-side RDMA / FP8 &#x00B7; AINIC / CX-7</text>

  <path d="M480 504 L480 526" stroke="#999" stroke-width="1.5" marker-end="url(#arr)"/>

  <rect x="30" y="526" width="900" height="56" rx="10" fill="#fde8e8" stroke="#d32f2f" stroke-width="1.5"/>
  <text x="480" y="548" text-anchor="middle" fill="#c62828" font-size="11" font-weight="600" letter-spacing="1">HARDWARE</text>
  <text x="480" y="568" text-anchor="middle" fill="#333" font-size="15" font-weight="700">AMD Instinct MI300X / MI355X</text>
</svg>
